<svg stroke="red" fill="red" stroke-width="0" viewBox="0 0 1024 1024" height="200px" width="200px" xmlns="http://www.w3.org/2000/svg">
    <path d="M1023.98 416.272l-.001-338.367c0-42.944-34.944-77.904-77.872-77.904H600.73c-21.68 0-54.496 0-75.92 21.44L18.875 527.393c-12.16 12.16-18.88 28.304-18.88 45.487 0 17.216 6.689 33.376 18.849 45.537l386.8 386.72C417.756 1017.312 433.916 1024 451.1 1024s33.36-6.689 45.487-18.849l505.952-505.968c21.696-21.648 21.569-52.816 21.441-82.912zm-66.685 37.666L450.878 959.874 64.126 572.658 569.518 67.154c5.088-3.152 23.408-3.152 30.992-3.152l14.4.048 331.2-.048c7.665 0 13.873 6.24 13.873 13.904V416.53c.064 12.176.129 32.544-2.688 37.408zM768.014 128.001c-70.689 0-128 57.311-128 128s57.312 128 128 128 128-57.312 128-128-57.312-128-128-128zm0 192c-35.344 0-64-28.656-64-64s28.656-64 64-64 64 28.656 64 64-28.656 64-64 64z"/>
    <g transform="translate(272 272) scale(30)" fill="white" stroke="white">
        <path fill-rule="evenodd" clip-rule="evenodd" d="M3.60962 12.6877L11.6096 2.68765L12.3905 3.31235L4.39049 13.3123L3.60962 12.6877Z"/>
        <path fill-rule="evenodd" clip-rule="evenodd" d="M4.5 6.5C3.67157 6.5 3 5.82843 3 5C3 4.17157 3.67157 3.5 4.5 3.5C5.32843 3.5 6 4.17157 6 5C6 5.82843 5.32843 6.5 4.5 6.5ZM4.5 7.5C5.88071 7.5 7 6.38071 7 5C7 3.61929 5.88071 2.5 4.5 2.5C3.11929 2.5 2 3.61929 2 5C2 6.38071 3.11929 7.5 4.5 7.5Z"/>
        <path fill-rule="evenodd" clip-rule="evenodd" d="M11.5 12.5C10.6716 12.5 10 11.8284 10 11C10 10.1716 10.6716 9.5 11.5 9.5C12.3284 9.5 13 10.1716 13 11C13 11.8284 12.3284 12.5 11.5 12.5ZM11.5 13.5C12.8807 13.5 14 12.3807 14 11C14 9.61929 12.8807 8.5 11.5 8.5C10.1193 8.5 9 9.61929 9 11C9 12.3807 10.1193 13.5 11.5 13.5Z"/>
    </g>
</svg>